Coordinates
version=1
nRows=40
nColumns=13
inDegrees=yes

Units are S.I. units (second, meters, Newtons, ...)
If the header above contains a line with 'inDegrees', this indicates whether rotational values are in degrees (yes) or radians (no).

endheader
time	bJoint_3	seatpos	hipangle	kneeangle	footangle	lbackangle	uarmleft_out	uarmleft_trn	uarmleft_up	uarmright_out	uarmright_trn	uarmright_up
      0.00000000	     -0.00000000	     -0.65652395	     23.53915153	    145.00870553	     78.54785705	     11.44975842	    -12.60010968	    -43.88982076	     -0.00000000	     -8.32228292	    -42.28851994	      0.00000000
      0.00500000	     -0.00000000	     -0.65628101	     23.55042188	    144.97813541	     78.52855729	     11.40293684	    -12.47308941	    -43.91795689	     -0.00000000	     -8.28980706	    -42.18340639	      0.00000000
      0.01000000	     -0.00000000	     -0.65552407	     23.58560310	    144.88285792	     78.46846102	     11.44974520	    -12.60014437	    -43.88981563	     -0.00000000	     -8.32218249	    -42.28853954	      0.00000000
      0.01500000	     -0.00000000	     -0.65529705	     23.59617377	    144.85427431	     78.45044808	     11.41583813	    -12.56919864	    -43.80434072	     -0.00000000	     -8.30386845	    -42.20580849	      0.00000000
      0.02000000	     -0.00000000	     -0.65429730	     23.64282886	    144.72835536	     78.37118423	     11.41636470	    -12.56993360	    -43.80517299	     -0.00000000	     -8.39992458	    -41.92517819	      0.00000000
      0.02500000	     -0.00000000	     -0.65352469	     23.67899912	    144.63099836	     78.30999748	     11.45025346	    -12.67915130	    -43.60597129	     -0.00000000	     -8.41880202	    -42.00755384	      0.00000000
      0.03000000	     -0.00000000	     -0.65328204	     23.69037999	    144.60041230	     78.29079229	     11.40348152	    -12.55261940	    -43.63413461	     -0.00000000	     -8.38599148	    -41.90307630	      0.00000000
      0.03500000	     -0.00000000	     -0.65229363	     23.73683973	    144.47578243	     78.21262217	     11.40266876	    -12.62856663	    -43.49850336	     -0.00000000	     -8.38392591	    -41.75022048	      0.00000000
      0.04000000	     -0.00000000	     -0.65128303	     23.78450997	    144.34828455	     78.13279452	     11.40434031	    -12.63177002	    -43.35081352	      0.00000000	     -8.48167510	    -41.62321165	      0.00000000
      0.04500000	     -0.00000000	     -0.65029928	     23.83107534	    144.22410525	     78.05518059	     11.41738097	    -12.72683799	    -43.23841807	     -0.00000000	     -8.49563516	    -41.64558296	      0.00000000
      0.05000000	     -0.00000000	     -0.64927922	     23.87952619	    144.09527167	     77.97479785	     11.39090983	    -12.69009836	    -43.04404469	     -0.00000000	     -8.46590233	    -41.44818420	      0.00000000
      0.05500000	     -0.00000000	     -0.64828576	     23.92687618	    143.96972648	     77.89660266	     11.41085547	    -12.71829720	    -43.07654978	     -0.00000000	     -8.32684421	    -41.30566980	      0.00000000
      0.06000000	     -0.00000000	     -0.64653002	     24.01094473	    143.74768301	     77.75862774	     11.45878395	    -12.92159355	    -42.76570909	     -0.00000000	     -8.45544835	    -41.12930176	      0.00000000
      0.06500000	     -0.00000000	     -0.64553023	     24.05903596	    143.62114556	     77.68018152	     11.45877168	    -12.92164303	    -42.76572338	     -0.00000000	     -8.45533107	    -41.12932141	      0.00000000
      0.07000000	     -0.00000000	     -0.64428391	     24.11920573	    143.46330865	     77.58251438	     11.39923972	    -12.85402744	    -42.48811873	     -0.00000000	     -8.40738046	    -40.85176042	      0.00000000
      0.07500000	     -0.00000000	     -0.64328891	     24.16741626	    143.33722156	     77.50463782	     11.41397954	    -12.87534897	    -42.51192136	     -0.00000000	     -8.51750128	    -40.74904639	      0.00000000
      0.08000000	     -0.00000000	     -0.64153269	     24.25288316	    143.11450325	     77.36738641	     11.46245080	    -13.07709254	    -42.20310198	     -0.00000000	     -8.64621206	    -40.57131515	      0.00000000
      0.08500000	     -0.00000000	     -0.64028777	     24.31375323	    142.95649563	     77.27024886	     11.40334106	    -13.00940147	    -41.92530763	     -0.00000000	     -8.59747932	    -40.29572477	      0.00000000
      0.09000000	     -0.00000000	     -0.63831084	     24.41089559	    142.70535755	     77.11625314	     11.43160397	    -13.12249649	    -41.84016676	     -0.00000000	     -8.72113766	    -40.21669892	      0.00000000
      0.09500000	     -0.00000000	     -0.63728726	     24.46142159	    142.57522071	     77.03664231	     11.40611459	    -13.08861491	    -41.64476493	     -0.00000000	     -8.69234201	    -40.01847380	      0.00000000
      0.10000000	     -0.00000000	     -0.63529296	     24.56030877	    142.32145669	     76.88176546	     11.40850605	    -13.16325198	    -41.36418473	     -0.00000000	     -8.78609890	    -39.74177653	      0.00000000
      0.10500000	     -0.00000000	     -0.63331184	     24.65911726	    142.06909315	     76.72821041	     11.42390380	    -13.25689141	    -41.25987135	     -0.00000000	     -8.89276992	    -39.48557647	      0.00000000
      0.11000000	      0.00000000	     -0.63154389	     24.74777071	    141.84365219	     76.59142290	     11.47286546	    -13.38356246	    -41.08022072	     -0.00000000	     -9.02127469	    -39.46398868	      0.00000000
      0.11500000	      0.00000000	     -0.62952856	     24.84937003	    141.58639965	     76.43576969	     11.46261431	    -13.36947971	    -40.90761079	     -0.00000000	     -9.09916560	    -39.16590457	      0.00000000
      0.12000000	     -0.00000000	     -0.62752550	     24.95091474	    141.33043053	     76.28134527	     11.45094284	    -13.42417176	    -40.60443391	     -0.00000000	     -9.08496791	    -38.98898586	      0.00000000
      0.12500000	     -0.00000000	     -0.62552884	     25.05268689	    141.07499843	     76.12768532	     11.45472346	    -13.50014776	    -40.32557654	     -0.00000000	     -9.17737734	    -38.71355505	      0.00000000
      0.13000000	     -0.00000000	     -0.62353254	     25.15498384	    140.81933261	     75.97431645	     11.45877713	    -13.57593317	    -40.04724642	     -0.00000000	     -9.26938599	    -38.43863948	      0.00000000
      0.13500000	     -0.00000000	     -0.62153678	     25.25778914	    140.56345520	     75.82124434	     11.46311048	    -13.65143519	    -39.76974110	     -0.00000000	     -9.36091078	    -38.16411400	      0.00000000
      0.14000000	     -0.00000000	     -0.61929296	     25.37400437	    140.27543695	     75.64944131	     11.40636510	    -13.58509919	    -39.49661234	     -0.00000000	     -9.31190878	    -37.89186532	      0.00000000
      0.14500000	     -0.00000000	     -0.61729749	     25.47791084	    140.01899768	     75.49690852	     11.41127301	    -13.66058326	    -39.21992148	     -0.00000000	     -9.40308408	    -37.61862720	      0.00000000
      0.15000000	     -0.00000000	     -0.61452343	     25.62321359	    139.66203175	     75.28524533	     11.44817839	    -13.76727792	    -39.01759014	     -0.00000000	     -9.51471821	    -37.41692620	      0.00000000
      0.15500000	     -0.00000000	     -0.61230786	     25.73996657	    139.37653920	     75.11650577	     11.42188479	    -13.81061113	    -38.66810551	     -0.00000000	     -9.58441984	    -37.07382646	      0.00000000
      0.16000000	     -0.00000000	     -0.60952798	     25.88732634	    139.01783667	     74.90516301	     11.44668226	    -13.89950812	    -38.44693308	     -0.00000000	     -9.68028910	    -36.68925322	      0.00000000
      0.16500000	     -0.00000000	     -0.60731386	     26.00537906	    138.73174003	     74.73711908	     11.42130943	    -13.94267766	    -38.10030468	     -0.00000000	     -9.74915881	    -36.34849718	      0.00000000
      0.17000000	     -0.00000000	     -0.60452286	     26.15503988	    138.37060046	     74.52564033	     11.44745137	    -14.03322682	    -37.71704086	     -0.00000000	     -9.84683263	    -36.12817443	      0.00000000
      0.17500000	     -0.00000000	     -0.60228143	     26.27590826	    138.08016577	     74.35607404	     11.39256367	    -13.96815801	    -37.44728415	     -0.00000000	     -9.79781119	    -35.85913528	      0.00000000
      0.18000000	      0.00000000	     -0.59931165	     26.43696840	    137.69479374	     74.13176214	     11.41791755	    -14.13331944	    -37.08233702	     -0.00000000	     -9.98884207	    -35.33700189	      0.00000000
      0.18500000	     -0.00000000	     -0.59631912	     26.60030277	    137.30581973	     73.90612251	     11.42529194	    -14.20745726	    -36.81041867	     -0.00000000	    -10.07773995	    -35.06794023	      0.00000000
      0.19000000	     -0.00000000	     -0.59331042	     26.76555550	    136.91408474	     73.67964024	     11.42181142	    -14.26629075	    -36.35681348	     -0.00000000	    -10.15333435	    -34.78292135	      0.00000000
      0.19500000	     -0.00000000	     -0.59031260	     26.93122831	    136.52310453	     73.45433284	     11.41807283	    -14.32371560	    -36.06891514	     -0.00000000	    -10.22679514	    -34.33021655	      0.00000000
